#N canvas 225 91 729 497 10;
#X obj 56 375 dac~;
#X obj 55 304 sas~;
#X obj 62 216 r colorValues;
#X obj 80 266 r warpValues;
#X obj 23 158 r amplitude;
#X obj 42 177 r frequency;
#X obj -253 23 cnv 15 250 450 empty empty empty 20 12 0 14 -233017
-66577 0;
#X obj -246 49 hsl 128 15 0 1 0 0 amplitude empty amplitude -2 -8 0
10 -262144 -1 -1 0 1;
#X obj -246 87 hsl 128 15 0 127 0 0 frequency empty pitch -2 -8 0 10
-262144 -1 -1 2800 1;
#N canvas 0 0 450 300 (subpatch) 0;
#X array color 20 float 5;
#A 0 0.895234 0.109524 -0.0190462 -0.0333318 -0.0476174 -0.0761886
-0.0761886 -0.0761886 -0.0761886 -0.0761886 -0.0904742 -0.10476 -0.10476
-0.10476 -0.10476 -0.10476 -0.10476 -0.10476 -0.10476 -0.0761886;
#X coords 0 1 19 -1 200 140 1;
#X restore -250 126 graph;
#N canvas 0 0 450 300 (subpatch) 0;
#X array warp 20 float 5;
#A 0 0.599997 -0.557145 0.242854 0.771425 0.228569 0.0428546 -0.100002
0.0428546 0.528569 0.55714 -0.314288 -0.257145 0.0571405 0.428569 -0.528573
-0.442859 -0.200002 0.585711 -0.600002 -0.600002;
#X coords 0 1 19 -1 200 140 1;
#X restore -255 300 graph;
#N canvas 0 0 490 375 updateEnvelopes 0;
#X obj 113 195 tabread color;
#X obj 89 144 until;
#X msg 89 127 20;
#X obj 94 161 int 0;
#X obj 128 161 + 1;
#X msg 131 144 0;
#X obj 113 229 t l l;
#X obj 94 178 t f f f;
#X obj 113 246 list prepend;
#X obj 113 212 list prepend;
#X obj 221 145 until;
#X msg 221 128 20;
#X obj 226 162 int 0;
#X obj 260 162 + 1;
#X msg 263 145 0;
#X obj 246 264 t l l;
#X obj 226 179 t f f f;
#X obj 246 281 list prepend;
#X obj 246 247 list prepend;
#X obj 245 196 tabread warp;
#X obj 246 298 s warpValues;
#X obj 113 263 s colorValues;
#X obj 114 39 r updateColor;
#X obj 246 50 r updateWarp;
#X obj 55 212 select 19;
#X obj 246 111 t b b b;
#X obj 114 110 t b b b;
#X obj 214 220 select 19;
#X obj 246 81 metro 100;
#X obj 114 75 metro 100;
#X connect 0 0 9 0;
#X connect 1 0 3 0;
#X connect 2 0 1 0;
#X connect 3 0 7 0;
#X connect 4 0 3 1;
#X connect 5 0 3 1;
#X connect 6 0 8 1;
#X connect 6 1 9 1;
#X connect 7 0 24 0;
#X connect 7 1 0 0;
#X connect 7 2 4 0;
#X connect 8 0 21 0;
#X connect 9 0 6 0;
#X connect 10 0 12 0;
#X connect 11 0 10 0;
#X connect 12 0 16 0;
#X connect 13 0 12 1;
#X connect 14 0 12 1;
#X connect 15 0 17 1;
#X connect 15 1 18 1;
#X connect 16 0 27 0;
#X connect 16 1 19 0;
#X connect 16 2 13 0;
#X connect 17 0 20 0;
#X connect 18 0 15 0;
#X connect 19 0 18 0;
#X connect 22 0 29 0;
#X connect 23 0 28 0;
#X connect 24 0 8 0;
#X connect 25 0 11 0;
#X connect 25 1 14 0;
#X connect 25 2 18 1;
#X connect 26 0 2 0;
#X connect 26 1 5 0;
#X connect 26 2 9 1;
#X connect 27 0 17 0;
#X connect 28 0 25 0;
#X connect 29 0 26 0;
#X restore 9 427 pd updateEnvelopes;
#X text 13 43 sas~ external for Pure-Data Structured additive synthesis
Made with flext Uses libSAS by Sylvain Marchand and Anthony Beurive
Developed at the SCRIME Licensed under GPL;
#X obj 47 194 mtof;
#X obj -42 235 bng 30 250 50 0 resetColor empty reset -5 -10 0 10 -262144
-1 -1;
#X obj -43 410 bng 30 250 50 0 resetWarp empty reset -5 -10 0 10 -262144
-1 -1;
#X obj 72 240 r resetColor;
#X obj 85 287 r resetWarp;
#X text 206 324 FIXME : envelope size fixed at 20;
#X obj -41 185 tgl 30 0 updateColor empty update -7 -7 0 10 -262144
-1 -1 1 1;
#X obj -43 357 tgl 30 0 updateWarp empty update -7 -7 0 10 -262144
-1 -1 0 1;
#X floatatom -75 90 5 0 0 0 - - -;
#X floatatom 175 205 5 0 0 0 - - -;
#X connect 1 0 0 0;
#X connect 1 1 0 1;
#X connect 2 0 1 3;
#X connect 3 0 1 4;
#X connect 4 0 1 1;
#X connect 5 0 13 0;
#X connect 13 0 1 2;
#X connect 13 0 22 0;
#X connect 16 0 1 3;
#X connect 17 0 1 4;
